<svg width="106" height="15" viewBox="0 0 106 15" fill="none" xmlns="http://www.w3.org/2000/svg">
<path d="M0.0239258 14H5.57593C9.11193 14 11.6399 11.728 11.6399 8.14405C11.6399 3.71205 8.53593 1.93605 4.48793 1.93605H0.0239258V14ZM4.40793 5.71205H4.67993C6.27993 5.71205 7.25593 6.43205 7.25593 8.12805C7.25593 9.71205 6.13593 10.384 4.67993 10.384H4.40793V5.71205Z" fill="#DA291C"/>
<path d="M15.7623 10.176C14.5943 10.176 13.3783 10.9281 13.3783 12.208C13.3783 13.472 14.5943 14.192 15.7623 14.192C16.9303 14.192 18.1463 13.472 18.1463 12.208C18.1463 10.9281 16.9303 10.176 15.7623 10.176Z" fill="#DA291C"/>
<path d="M20.3146 14H24.6986V1.93605H20.3146V14Z" fill="#DA291C"/>
<path d="M29.2717 10.176C28.1037 10.176 26.8877 10.9281 26.8877 12.208C26.8877 13.472 28.1037 14.192 29.2717 14.192C30.4397 14.192 31.6557 13.472 31.6557 12.208C31.6557 10.9281 30.4397 10.176 29.2717 10.176Z" fill="#DA291C"/>
<path d="M32.6719 1.93605L36.8799 8.80005V14H41.1679V8.80005L45.2959 1.93605H40.3679L39.5039 3.95205C39.3439 4.32005 39.2319 4.70405 39.1039 5.08805H38.9759L37.6319 1.93605H32.6719Z" fill="#DA291C"/>
<path d="M47.1092 10.176C45.9412 10.176 44.7252 10.9281 44.7252 12.208C44.7252 13.472 45.9412 14.192 47.1092 14.192C48.2772 14.192 49.4932 13.472 49.4932 12.208C49.4932 10.9281 48.2772 10.176 47.1092 10.176Z" fill="#DA291C"/>
<path d="M65.6697 10.576L67.0937 14H68.5817L63.1577 1.36005L57.5897 14H59.0617L60.5177 10.576H65.6697ZM65.1417 9.32805H61.0617L63.1257 4.49605L65.1417 9.32805Z" fill="#DA291C"/>
<path d="M73.2172 7.45605C74.8012 7.45605 75.7452 8.67205 75.7452 10.176C75.7452 11.696 74.8812 13.024 73.2332 13.024C71.6332 13.024 70.7692 11.632 70.7692 10.16C70.7692 8.75205 71.7292 7.45605 73.2172 7.45605ZM75.6812 14H76.9612V0.800049H75.6812V7.55205H75.6492C75.0412 6.75205 74.0812 6.27205 73.0732 6.27205C70.8172 6.27205 69.4572 8.11205 69.4572 10.256C69.4572 12.336 70.8492 14.208 73.0572 14.208C74.0812 14.208 75.0252 13.776 75.6492 12.96H75.6812V14Z" fill="#DA291C"/>
<path d="M79.7876 6.48005H78.3316L82.0275 14.496L85.7076 6.48005H84.2676L82.0275 11.536L79.7876 6.48005Z" fill="#DA291C"/>
<path d="M88.6578 6.48005H87.3778V14H88.6578V6.48005ZM88.0178 2.73605C87.5218 2.73605 87.1058 3.15205 87.1058 3.64805C87.1058 4.16005 87.5218 4.56005 88.0178 4.56005C88.5138 4.56005 88.9298 4.16005 88.9298 3.64805C88.9298 3.15205 88.5138 2.73605 88.0178 2.73605Z" fill="#DA291C"/>
<path d="M97.1093 7.02405C96.4373 6.54405 95.6053 6.27205 94.7893 6.27205C92.5813 6.27205 90.7733 8.00005 90.7733 10.24C90.7733 12.512 92.5013 14.208 94.7733 14.208C95.6693 14.208 96.4213 13.936 97.1573 13.44V11.728H97.1253C96.5013 12.544 95.7493 13.024 94.6773 13.024C93.1093 13.024 92.0853 11.728 92.0853 10.24C92.0853 8.73605 93.1893 7.45605 94.7413 7.45605C95.7493 7.45605 96.4853 7.96805 97.0773 8.72005H97.1093V7.02405Z" fill="#DA291C"/>
<path d="M105.879 10.512C106.007 8.27205 104.727 6.27205 102.311 6.27205C99.9587 6.27205 98.6627 8.11205 98.6627 10.336C98.6627 12.496 100.103 14.208 102.343 14.208C103.879 14.208 105.095 13.44 105.815 12.096L104.727 11.472C104.231 12.368 103.527 13.024 102.439 13.024C100.983 13.024 99.9907 11.904 99.9747 10.512H105.879ZM100.039 9.42405C100.199 8.33605 101.223 7.45605 102.327 7.45605C103.447 7.45605 104.359 8.33605 104.535 9.42405H100.039Z" fill="#DA291C"/>
</svg>