<svg width="50" height="27" viewBox="0 0 50 27" fill="none" xmlns="http://www.w3.org/2000/svg">
<path d="M6.42171 25.9999V15.5188H8.50095V12.1346H0.800781V15.5188H2.791V25.9999H6.42171Z" fill="#0D5257"/>
<path fill-rule="evenodd" clip-rule="evenodd" d="M13.6639 18.5349V15.1179C14.6622 15.0653 15.3744 15.5779 15.3744 16.7936C15.3744 17.6938 14.8593 18.5612 13.8992 18.5612L13.6639 18.5349ZM19.5901 25.9999L16.8877 20.2238C18.3311 19.6323 18.9669 18.2721 18.9669 16.7476C18.9669 13.0874 16.6906 12.1346 13.5367 12.1346H10.0332V25.9999H13.6639V22.3068C13.6639 21.6234 13.6258 20.9466 13.613 20.2632L13.6512 20.2238L15.6605 25.9999H19.5901Z" fill="#0D5257"/>
<path fill-rule="evenodd" clip-rule="evenodd" d="M24.9096 21.2751L25.4055 18.0553C25.5454 17.1879 25.6344 16.3073 25.7425 15.4465H25.7871C25.8761 16.3139 25.946 17.1944 26.0541 18.0553L26.4483 21.2751H24.9096ZM30.8929 25.9999L28.0443 12.1346H23.6124L20.3887 25.9999H24.1275L24.4327 24.2191H26.868L27.1351 25.9999H30.8929Z" fill="#0D5257"/>
<path fill-rule="evenodd" clip-rule="evenodd" d="M35.9251 15.591C37.5784 15.591 37.8645 17.6873 37.8645 19.1986C37.8645 20.5063 37.5784 22.6354 35.9251 22.6551V15.591ZM32.3008 25.9999H35.4673C37.6737 25.9999 41.5715 25.4084 41.5715 19.0146C41.5715 14.8222 39.346 12.1346 35.2193 12.1346H32.3008V25.9999V25.9999Z" fill="#0D5257"/>
<path d="M43.1914 25.9999H49.9378V22.7274H46.8221V20.6115H49.6135V17.339H46.8221V15.407H49.9378V12.1346H43.1914V25.9999Z" fill="#0D5257"/>
<path d="M45.2666 6.09898C45.2713 6.18265 45.2761 6.25648 45.2761 6.34015C45.2761 8.30887 43.7331 9.89861 41.8281 9.89861C39.9231 9.89861 38.3753 8.30395 38.3753 6.34015C38.3753 4.37143 39.9183 2.77677 41.8281 2.77677C43.1235 2.77677 44.2522 3.51504 44.8427 4.60768L43.7807 5.58219C43.4807 4.76518 42.7234 4.1844 41.8281 4.1844C40.6755 4.1844 39.7421 5.14908 39.7421 6.34015C39.7421 7.53123 40.6755 8.4959 41.8281 8.4959C42.652 8.4959 43.3616 8.00372 43.7045 7.28514L41.909 7.29006V6.1039L45.2666 6.09898ZM36.0226 2.88997H37.4228L37.4275 9.74111L32.6412 5.80367V9.73619H31.2411L31.2458 2.88997L36.0274 6.82249V2.88997H36.0226ZM26.3976 2.88997H27.7978L27.8025 9.74111L23.0162 5.80367V9.73619H21.6161L21.6208 2.88997L26.4024 6.82249V2.88997H26.3976ZM30.2076 2.88997V9.73619H28.8074L28.8122 2.88997H30.2076ZM11.9673 2.88997H13.3627V7.15225C13.3627 8.64847 12.1149 9.85924 10.6671 9.85924C9.21932 9.85924 7.97155 8.64847 7.97155 7.15225L7.97631 2.88505H9.37172V7.15717C9.37172 7.85114 9.99084 8.41715 10.6671 8.41715C11.3386 8.41715 11.9625 7.85114 11.9625 7.15717L11.9673 2.88997ZM19.192 2.88997H20.5921L20.5969 9.74111L15.8106 5.80367V9.73619H14.4104L14.4152 2.88997L19.1967 6.82249V2.88997H19.192ZM47.9002 9.91338C46.9906 9.91338 46.2143 9.51471 45.7428 9.00777L46.5144 8.00372C46.8096 8.30887 47.2764 8.67308 47.9241 8.67308C48.3003 8.67308 48.6765 8.3827 48.6765 7.87575C48.6765 6.79788 45.8476 6.77327 45.8476 4.839C45.8476 3.70699 46.7334 2.79153 47.8288 2.79153C48.686 2.79153 49.3147 3.10653 49.7862 3.61347L49.0004 4.63721C48.6908 4.28776 48.3051 4.11058 47.905 4.11058C47.5097 4.1155 47.1525 4.35174 47.1525 4.839C47.1525 5.91195 49.9386 5.77414 49.9386 7.86591C49.9433 8.99792 48.9956 9.91338 47.9002 9.91338ZM0.784954 6.18265L0.00866874 6.74866L0.00390625 4.90791L0.784954 4.33698V1H4.51874C5.65698 1 6.57614 1.94499 6.57614 3.11637C6.57614 3.71683 6.33801 4.25823 5.95225 4.64213C6.71901 5.02111 7.24289 5.82828 7.24289 6.76343C7.24289 7.56076 6.85713 8.26457 6.2761 8.68785C5.90463 8.95855 4.80449 9.73619 4.80449 9.73619H1.53266L5.87605 6.57148V4.73072L0.784954 8.43684V6.18265ZM0.161068 4.98173V6.44351L4.84736 3.02778H2.83759L0.161068 4.98173Z" fill="#0D5257"/>
<path d="M0.158203 6.44417V4.9824L2.83472 3.02844H4.84449L0.158203 6.44417Z" fill="#DA291C"/>
</svg>
