<svg width="59" height="13" viewBox="0 0 59 13" fill="none" xmlns="http://www.w3.org/2000/svg">
<path d="M23.6383 4.93675C22.5639 4.93675 21.5822 5.31048 20.8745 5.9885C20.163 6.6703 19.771 7.62103 19.771 8.6652C19.771 9.71884 20.1712 10.6677 20.8972 11.3362C21.6497 12.0288 22.692 12.3943 23.913 12.3943C25.1901 12.3943 26.1812 12.018 26.8611 11.275L25.8176 10.1443C25.2955 10.6165 24.7216 10.8274 23.9679 10.8274C22.8139 10.8274 21.9957 10.251 21.7798 9.28577L21.7596 9.19486H21.853H27.3744C27.3769 9.16267 27.38 9.12921 27.3832 9.09575C27.3965 8.95307 27.4097 8.80598 27.4097 8.69298C27.4097 7.57242 27.0341 6.62106 26.3239 5.94052C25.6471 5.29344 24.6939 4.93675 23.6383 4.93675ZM23.6522 6.40768C24.6263 6.40768 25.3593 7.01751 25.531 7.96509H21.7596C21.9313 7.00362 22.6522 6.40768 23.6522 6.40768ZM17.9737 5.70504C18.5406 6.25995 18.8285 7.07559 18.8285 8.12986V12.2844H16.8348V8.4594C16.8348 7.2694 16.2913 6.64063 15.2629 6.64063C14.8248 6.64063 14.3721 6.81676 14.0527 7.14945C13.7074 7.50993 13.5325 8.0339 13.5325 8.70624V12.2838H11.5395V5.0466H13.4366V5.83699V6.02953L13.5666 5.88749C14.1266 5.2745 15.0552 4.93675 15.8399 4.93675C16.7218 4.93675 17.4592 5.20253 17.9737 5.70504ZM6.65893 0C5.58131 0 4.60469 0.440015 3.89827 1.14959L0 5.04534H2.76319V8.49854C2.76319 10.6468 4.51126 12.3949 6.65957 12.3949C8.80787 12.3949 10.5559 10.6468 10.5559 8.49854V3.89637C10.5553 1.74807 8.80724 0 6.65893 0ZM8.60144 8.49854C8.60144 9.56985 7.73025 10.441 6.65893 10.441C5.58762 10.441 4.71643 9.56985 4.71643 8.49854V5.04534H2.76256L5.28775 2.52141C5.63939 2.17104 6.12422 1.95387 6.65893 1.95387C7.73025 1.95387 8.60144 2.82506 8.60144 3.89637V8.49854ZM31.5536 2.37999H28.3358V12.2844H30.3535V9.26683V9.19234H30.4279H31.5536C34.0832 9.19234 35.6545 7.88997 35.6545 5.79279C35.6545 3.68805 34.0832 2.37999 31.5536 2.37999ZM31.4304 7.5295H30.4279H30.3535V7.455V4.11859V4.0441H30.4279H31.4304C32.7985 4.0441 33.5516 4.66529 33.5516 5.79406C33.5516 6.91272 32.7978 7.5295 31.4304 7.5295ZM51.048 10.1216C51.048 10.7838 50.7532 11.3463 50.1952 11.7491C49.6099 12.1714 48.7646 12.3949 47.7501 12.3949C46.6397 12.3949 45.4459 12.095 44.7502 11.6456L45.379 10.2434C46.0374 10.6582 46.9882 10.924 47.8291 10.924C48.7615 10.924 49.2148 10.6797 49.2148 10.1765C49.2148 9.64056 48.5109 9.53387 47.6958 9.41076C46.4516 9.22201 44.9024 8.98779 44.9024 7.25172C44.9024 5.84582 46.1706 4.93739 48.134 4.93739C49.1169 4.93739 50.1478 5.17223 50.7873 5.53901L50.1585 6.9285C49.543 6.58381 48.8625 6.40831 48.1346 6.40831C46.872 6.40831 46.7356 6.94049 46.7356 7.16966C46.7356 7.7353 47.4591 7.85209 48.2968 7.98719C49.5228 8.18415 51.048 8.43036 51.048 10.1216ZM58.0656 10.1216C58.0656 10.7838 57.6022 11.3463 57.0441 11.7491C56.4589 12.1714 55.6136 12.3949 54.5991 12.3949C53.4886 12.3949 52.2949 12.095 51.5992 11.6456L52.2279 10.2434C52.8864 10.6582 53.8371 10.924 54.678 10.924C55.6104 10.924 56.0637 10.6797 56.0637 10.1765C56.0637 9.64056 55.3598 9.53387 54.5448 9.41076C53.3005 9.22201 51.7513 8.98779 51.7513 7.25172C51.7513 5.84582 53.0196 4.93739 54.9829 4.93739C55.9659 4.93739 57.1653 5.17223 57.8042 5.53901L57.0069 6.9285C56.3913 6.58381 55.7108 6.40831 54.9829 6.40831C53.7203 6.40831 53.584 6.94049 53.584 7.16966C53.584 7.7353 54.3074 7.85209 55.1452 7.98719C56.3712 8.18415 58.0656 8.43036 58.0656 10.1216ZM41.862 5.75492V5.95188L41.7313 5.80479C41.2282 5.23725 40.4826 4.93739 39.5761 4.93739C37.4448 4.93739 35.9562 6.47081 35.9562 8.66646C35.9562 10.8621 37.4448 12.3955 39.5761 12.3955C40.5546 12.3955 41.3115 12.0812 41.826 11.4612L41.958 11.3021V11.5092V12.2857H43.855V5.0466H41.862V5.75492ZM41.3387 10.2195C40.987 10.585 40.4934 10.7864 39.9473 10.7864C39.3955 10.7864 38.8394 10.585 38.4858 10.2195C38.1153 9.83563 37.9189 9.29839 37.9189 8.66583C37.9189 8.03327 38.1153 7.49604 38.4858 7.11221C38.8387 6.74669 39.3955 6.5453 39.9473 6.5453C40.4927 6.5453 40.987 6.74669 41.3387 7.11221C41.7086 7.49667 41.9037 8.0339 41.9037 8.66583C41.9037 9.29776 41.708 9.835 41.3387 10.2195Z" fill="#9900F1"/>
</svg>
